<svg xmlns="http://www.w3.org/2000/svg" viewBox="0 0 200 200"><defs><style>.cls-1{fill:#a50082;}.cls-2{fill:#520040;}.cls-3{fill:#16001b;}.cls-4{fill:#47003b;}.cls-5{fill:#3c002f;}.cls-6{fill:#a80098;}.cls-7{fill:#b000a9;}.cls-8{fill:#580055;}.cls-9{fill:#7500c5;}.cls-10{fill:#3c005b;}.cls-11{fill:#460095;}.cls-12{fill:#3a0050;}.cls-13{fill:#3e0034;}.cls-14{fill:#39008d;}.cls-15{fill:#15002b;}.cls-16{fill:#210045;}.cls-17{fill:#300088;}.cls-18{fill:#360086;}.cls-19{fill:#30002c;}.cls-20{fill:#180032;}.cls-21{fill:#2d00a0;}.cls-22{fill:#2b007a;}.cls-23{fill:#16004a;}.cls-24{fill:#270088;}.cls-25{fill:#150032;}</style></defs><title>Asset 25badge</title><g id="Layer_2" data-name="Layer 2"><g id="Layer_1-2" data-name="Layer 1"><rect class="cls-1" x="175" y="175" width="25" height="25"/><rect class="cls-2" x="175" y="150" width="25" height="25"/><rect class="cls-3" x="175" y="125" width="25" height="25"/><rect class="cls-4" x="175" y="100" width="25" height="25"/><rect class="cls-3" x="175" y="75" width="25" height="25"/><rect class="cls-3" x="175" y="50" width="25" height="25"/><rect class="cls-5" x="175" y="25" width="25" height="25"/><rect class="cls-3" x="175" width="25" height="25"/><rect class="cls-6" x="150" y="175" width="25" height="25"/><rect class="cls-7" x="150" y="150" width="25" height="25"/><rect class="cls-3" x="150" y="125" width="25" height="25"/><rect class="cls-3" x="150" y="100" width="25" height="25"/><rect class="cls-8" x="150" y="75" width="25" height="25"/><rect class="cls-3" x="150" y="50" width="25" height="25"/><rect class="cls-3" x="150" y="25" width="25" height="25"/><rect class="cls-3" x="150" width="25" height="25"/><rect class="cls-7" x="125" y="175" width="25" height="25"/><rect class="cls-9" x="125" y="150" width="25" height="25"/><rect class="cls-3" x="125" y="125" width="25" height="25"/><rect class="cls-8" x="125" y="100" width="25" height="25"/><rect class="cls-3" x="125" y="75" width="25" height="25"/><rect class="cls-10" x="125" y="50" width="25" height="25"/><rect class="cls-3" x="125" y="25" width="25" height="25"/><rect class="cls-3" x="125" width="25" height="25"/><rect class="cls-9" x="100" y="175" width="25" height="25"/><rect class="cls-11" x="100" y="150" width="25" height="25"/><rect class="cls-12" x="100" y="125" width="25" height="25"/><rect class="cls-3" x="100" y="100" width="25" height="25"/><rect class="cls-3" x="100" y="75" width="25" height="25"/><rect class="cls-3" x="100" y="50" width="25" height="25"/><rect class="cls-13" x="100" y="25" width="25" height="25"/><rect class="cls-3" x="100" width="25" height="25"/><rect class="cls-11" x="75" y="175" width="25" height="25"/><rect class="cls-14" x="75" y="150" width="25" height="25"/><rect class="cls-15" x="75" y="125" width="25" height="25"/><rect class="cls-12" x="75" y="100" width="25" height="25"/><rect class="cls-16" x="75" y="75" width="25" height="25"/><rect class="cls-3" x="75" y="50" width="25" height="25"/><rect class="cls-3" x="75" y="25" width="25" height="25"/><rect class="cls-3" x="75" width="25" height="25"/><rect class="cls-14" x="50" y="175" width="25" height="25"/><rect class="cls-17" x="50" y="150" width="25" height="25"/><rect class="cls-15" x="50" y="125" width="25" height="25"/><rect class="cls-18" x="50" y="100" width="25" height="25"/><rect class="cls-3" x="50" y="75" width="25" height="25"/><rect class="cls-19" x="50" y="50" width="25" height="25"/><rect class="cls-20" x="50" y="25" width="25" height="25"/><rect class="cls-3" x="50" width="25" height="25"/><rect class="cls-17" x="25" y="175" width="25" height="25"/><rect class="cls-21" x="25" y="150" width="25" height="25"/><rect class="cls-22" x="25" y="125" width="25" height="25"/><rect class="cls-3" x="25" y="100" width="25" height="25"/><rect class="cls-3" x="25" y="75" width="25" height="25"/><rect class="cls-23" x="25" y="50" width="25" height="25"/><rect class="cls-3" x="25" y="25" width="25" height="25"/><rect class="cls-3" x="25" width="25" height="25"/><rect class="cls-21" y="175" width="25" height="25"/><rect class="cls-3" y="150" width="25" height="25"/><rect class="cls-24" y="125" width="25" height="25"/><rect class="cls-23" y="100" width="25" height="25"/><rect class="cls-23" y="75" width="25" height="25"/><rect class="cls-3" y="50" width="25" height="25"/><rect class="cls-25" y="25" width="25" height="25"/><rect class="cls-3" width="25" height="25"/></g></g></svg>