<svg xmlns="http://www.w3.org/2000/svg" viewBox="0 0 200 200"><defs><style>.cls-1{fill:#e5c487;}.cls-2{fill:#006f6b;}.cls-3{fill:#00df5e;}.cls-4{fill:#c75100;}.cls-5{fill:#80b73a;}.cls-6{fill:#afda2d;}.cls-7{fill:#dffd5c;}.cls-8{fill:#00b49c;}</style></defs><title>Asset 18badge</title><g id="Layer_2" data-name="Layer 2"><g id="Layer_1-2" data-name="Layer 1"><rect x="175" y="175" width="25" height="25"/><rect x="175" y="150" width="25" height="25"/><rect x="175" y="125" width="25" height="25"/><rect x="175" y="100" width="25" height="25"/><rect x="175" y="75" width="25" height="25"/><rect x="175" y="50" width="25" height="25"/><rect x="175" y="25" width="25" height="25"/><rect x="175" width="25" height="25"/><rect x="150" y="175" width="25" height="25"/><rect x="150" y="150" width="25" height="25"/><rect class="cls-1" x="150" y="125" width="25" height="25"/><rect x="150" y="100" width="25" height="25"/><rect x="150" y="75" width="25" height="25"/><rect class="cls-2" x="150" y="50" width="25" height="25"/><rect x="150" y="25" width="25" height="25"/><rect x="150" width="25" height="25"/><rect x="125" y="175" width="25" height="25"/><rect x="125" y="150" width="25" height="25"/><rect x="125" y="125" width="25" height="25"/><rect x="125" y="100" width="25" height="25"/><rect x="125" y="75" width="25" height="25"/><rect x="125" y="50" width="25" height="25"/><rect x="125" y="25" width="25" height="25"/><rect x="125" width="25" height="25"/><rect x="100" y="175" width="25" height="25"/><rect x="100" y="150" width="25" height="25"/><rect x="100" y="125" width="25" height="25"/><rect class="cls-3" x="100" y="100" width="25" height="25"/><rect x="100" y="75" width="25" height="25"/><rect x="100" y="50" width="25" height="25"/><rect x="100" y="25" width="25" height="25"/><rect class="cls-4" x="100" width="25" height="25"/><rect x="75" y="175" width="25" height="25"/><rect class="cls-2" x="75" y="150" width="25" height="25"/><rect x="75" y="125" width="25" height="25"/><rect x="75" y="100" width="25" height="25"/><rect x="75" y="75" width="25" height="25"/><rect x="75" y="50" width="25" height="25"/><rect x="75" y="25" width="25" height="25"/><rect x="75" width="25" height="25"/><rect x="50" y="175" width="25" height="25"/><rect x="50" y="150" width="25" height="25"/><rect x="50" y="125" width="25" height="25"/><rect x="50" y="100" width="25" height="25"/><rect x="50" y="75" width="25" height="25"/><rect class="cls-5" x="50" y="50" width="25" height="25"/><rect x="50" y="25" width="25" height="25"/><rect x="50" width="25" height="25"/><rect class="cls-6" x="25" y="175" width="25" height="25"/><rect x="25" y="150" width="25" height="25"/><rect x="25" y="125" width="25" height="25"/><rect x="25" y="100" width="25" height="25"/><rect x="25" y="75" width="25" height="25"/><rect class="cls-5" x="25" y="50" width="25" height="25"/><rect x="25" y="25" width="25" height="25"/><rect x="25" width="25" height="25"/><rect class="cls-7" y="175" width="25" height="25"/><rect y="150" width="25" height="25"/><rect class="cls-8" y="125" width="25" height="25"/><rect y="100" width="25" height="25"/><rect y="75" width="25" height="25"/><rect y="50" width="25" height="25"/><rect y="25" width="25" height="25"/><rect width="25" height="25"/></g></g></svg>