<svg xmlns="http://www.w3.org/2000/svg" viewBox="0 0 200 200"><defs><style>.cls-1{fill:#29abe2;}.cls-2{fill:#269fd2;}.cls-3{fill:#2394c3;}.cls-4{fill:#218ab5;}.cls-5{fill:#1f80a8;}.cls-6{fill:#fff;}.cls-7{fill:#f2f2f2;}.cls-8{fill:#e6e6e6;}</style></defs><title>Asset 3badge</title><g id="Layer_2" data-name="Layer 2"><g id="Layer_1-2" data-name="Layer 1"><rect class="cls-1" x="175" y="175" width="25" height="25"/><rect class="cls-1" x="175" y="150" width="25" height="25"/><rect class="cls-1" x="175" y="125" width="25" height="25"/><rect class="cls-1" x="175" y="100" width="25" height="25"/><rect class="cls-2" x="175" y="75" width="25" height="25"/><rect class="cls-3" x="175" y="50" width="25" height="25"/><rect class="cls-4" x="175" y="25" width="25" height="25"/><rect class="cls-5" x="175" width="25" height="25"/><rect class="cls-1" x="150" y="175" width="25" height="25"/><rect class="cls-2" x="150" y="150" width="25" height="25"/><rect class="cls-6" x="150" y="125" width="25" height="25"/><rect class="cls-1" x="150" y="100" width="25" height="25"/><rect class="cls-2" x="150" y="75" width="25" height="25"/><rect class="cls-3" x="150" y="50" width="25" height="25"/><rect class="cls-4" x="150" y="25" width="25" height="25"/><rect class="cls-5" x="150" width="25" height="25"/><rect class="cls-1" x="125" y="175" width="25" height="25"/><rect class="cls-2" x="125" y="150" width="25" height="25"/><rect class="cls-7" x="125" y="125" width="25" height="25"/><rect class="cls-7" x="125" y="100" width="25" height="25"/><rect class="cls-2" x="125" y="75" width="25" height="25"/><rect class="cls-3" x="125" y="50" width="25" height="25"/><rect class="cls-4" x="125" y="25" width="25" height="25"/><rect class="cls-5" x="125" width="25" height="25"/><rect class="cls-1" x="100" y="175" width="25" height="25"/><rect class="cls-2" x="100" y="150" width="25" height="25"/><rect class="cls-8" x="100" y="125" width="25" height="25"/><rect class="cls-6" x="100" y="100" width="25" height="25"/><rect class="cls-6" x="100" y="75" width="25" height="25"/><rect class="cls-3" x="100" y="50" width="25" height="25"/><rect class="cls-4" x="100" y="25" width="25" height="25"/><rect class="cls-5" x="100" width="25" height="25"/><rect class="cls-1" x="75" y="175" width="25" height="25"/><rect class="cls-2" x="75" y="150" width="25" height="25"/><rect class="cls-6" x="75" y="125" width="25" height="25"/><rect class="cls-6" x="75" y="100" width="25" height="25"/><rect class="cls-6" x="75" y="75" width="25" height="25"/><rect class="cls-3" x="75" y="50" width="25" height="25"/><rect class="cls-4" x="75" y="25" width="25" height="25"/><rect class="cls-5" x="75" width="25" height="25"/><rect class="cls-1" x="50" y="175" width="25" height="25"/><rect class="cls-2" x="50" y="150" width="25" height="25"/><rect class="cls-6" x="50" y="125" width="25" height="25"/><rect class="cls-7" x="50" y="100" width="25" height="25"/><rect class="cls-2" x="50" y="75" width="25" height="25"/><rect class="cls-3" x="50" y="50" width="25" height="25"/><rect class="cls-4" x="50" y="25" width="25" height="25"/><rect class="cls-5" x="50" width="25" height="25"/><rect class="cls-1" x="25" y="175" width="25" height="25"/><rect class="cls-2" x="25" y="150" width="25" height="25"/><rect class="cls-7" x="25" y="125" width="25" height="25"/><rect class="cls-1" x="25" y="100" width="25" height="25"/><rect class="cls-2" x="25" y="75" width="25" height="25"/><rect class="cls-3" x="25" y="50" width="25" height="25"/><rect class="cls-4" x="25" y="25" width="25" height="25"/><rect class="cls-5" x="25" width="25" height="25"/><rect class="cls-1" y="175" width="25" height="25"/><rect class="cls-1" y="150" width="25" height="25"/><rect class="cls-1" y="125" width="25" height="25"/><rect class="cls-1" y="100" width="25" height="25"/><rect class="cls-2" y="75" width="25" height="25"/><rect class="cls-3" y="50" width="25" height="25"/><rect class="cls-4" y="25" width="25" height="25"/><rect class="cls-5" width="25" height="25"/></g></g></svg>