<svg xmlns="http://www.w3.org/2000/svg" viewBox="0 0 200 200"><defs><style>.cls-1{fill:#5c0000;}.cls-2{fill:#ff5100;}.cls-3{fill:red;}.cls-4{fill:#ffaf00;}.cls-5{fill:#fce200;}</style></defs><title>Asset 1badge</title><g id="Layer_2" data-name="Layer 2"><g id="Layer_1-2" data-name="Layer 1"><rect class="cls-1" x="175" y="175" width="25" height="25"/><rect class="cls-1" x="175" y="150" width="25" height="25"/><rect class="cls-1" x="175" y="125" width="25" height="25"/><rect class="cls-1" x="175" y="100" width="25" height="25"/><rect class="cls-1" x="175" y="75" width="25" height="25"/><rect class="cls-1" x="175" y="50" width="25" height="25"/><rect class="cls-1" x="175" y="25" width="25" height="25"/><rect class="cls-1" x="175" width="25" height="25"/><rect class="cls-1" x="150" y="175" width="25" height="25"/><rect class="cls-2" x="150" y="150" width="25" height="25"/><rect class="cls-3" x="150" y="125" width="25" height="25"/><rect class="cls-2" x="150" y="100" width="25" height="25"/><rect class="cls-1" x="150" y="75" width="25" height="25"/><rect class="cls-1" x="150" y="50" width="25" height="25"/><rect class="cls-1" x="150" y="25" width="25" height="25"/><rect class="cls-1" x="150" width="25" height="25"/><rect class="cls-3" x="125" y="175" width="25" height="25"/><rect class="cls-4" x="125" y="150" width="25" height="25"/><rect class="cls-4" x="125" y="125" width="25" height="25"/><rect class="cls-2" x="125" y="100" width="25" height="25"/><rect class="cls-2" x="125" y="75" width="25" height="25"/><rect class="cls-1" x="125" y="50" width="25" height="25"/><rect class="cls-1" x="125" y="25" width="25" height="25"/><rect class="cls-3" x="125" width="25" height="25"/><rect class="cls-2" x="100" y="175" width="25" height="25"/><rect class="cls-5" x="100" y="150" width="25" height="25"/><rect class="cls-4" x="100" y="125" width="25" height="25"/><rect class="cls-3" x="100" y="100" width="25" height="25"/><rect class="cls-5" x="100" y="75" width="25" height="25"/><rect class="cls-2" x="100" y="50" width="25" height="25"/><rect class="cls-2" x="100" y="25" width="25" height="25"/><rect class="cls-1" x="100" width="25" height="25"/><rect class="cls-3" x="75" y="175" width="25" height="25"/><rect class="cls-5" x="75" y="150" width="25" height="25"/><rect class="cls-5" x="75" y="125" width="25" height="25"/><rect class="cls-4" x="75" y="100" width="25" height="25"/><rect class="cls-2" x="75" y="75" width="25" height="25"/><rect class="cls-2" x="75" y="50" width="25" height="25"/><rect class="cls-3" x="75" y="25" width="25" height="25"/><rect class="cls-1" x="75" width="25" height="25"/><rect class="cls-1" x="50" y="175" width="25" height="25"/><rect class="cls-3" x="50" y="150" width="25" height="25"/><rect class="cls-2" x="50" y="125" width="25" height="25"/><rect class="cls-2" x="50" y="100" width="25" height="25"/><rect class="cls-3" x="50" y="75" width="25" height="25"/><rect class="cls-3" x="50" y="50" width="25" height="25"/><rect class="cls-1" x="50" y="25" width="25" height="25"/><rect class="cls-1" x="50" width="25" height="25"/><rect class="cls-1" x="25" y="175" width="25" height="25"/><rect class="cls-1" x="25" y="150" width="25" height="25"/><rect class="cls-3" x="25" y="125" width="25" height="25"/><rect class="cls-3" x="25" y="100" width="25" height="25"/><rect class="cls-1" x="25" y="75" width="25" height="25"/><rect class="cls-1" x="25" y="50" width="25" height="25"/><rect class="cls-1" x="25" y="25" width="25" height="25"/><rect class="cls-1" x="25" width="25" height="25"/><rect class="cls-1" y="175" width="25" height="25"/><rect class="cls-1" y="150" width="25" height="25"/><rect class="cls-1" y="125" width="25" height="25"/><rect class="cls-1" y="100" width="25" height="25"/><rect class="cls-1" y="75" width="25" height="25"/><rect class="cls-1" y="50" width="25" height="25"/><rect class="cls-1" y="25" width="25" height="25"/><rect class="cls-1" width="25" height="25"/></g></g></svg>