<svg xmlns="http://www.w3.org/2000/svg" viewBox="0 0 200 200"><defs><style>.cls-1{fill:#9ee260;}.cls-2{fill:#57b4f0;}</style></defs><title>Asset 11badge</title><g id="Layer_2" data-name="Layer 2"><g id="Layer_1-2" data-name="Layer 1"><rect x="175" y="175" width="25" height="25"/><rect x="175" y="150" width="25" height="25"/><rect x="175" y="125" width="25" height="25"/><rect x="175" y="100" width="25" height="25"/><rect x="175" y="75" width="25" height="25"/><rect class="cls-1" x="175" y="50" width="25" height="25"/><rect x="175" y="25" width="25" height="25"/><rect x="175" width="25" height="25"/><rect x="150" y="175" width="25" height="25"/><rect x="150" y="150" width="25" height="25"/><rect x="150" y="125" width="25" height="25"/><rect x="150" y="100" width="25" height="25"/><rect x="150" y="75" width="25" height="25"/><rect x="150" y="50" width="25" height="25"/><rect class="cls-1" x="150" y="25" width="25" height="25"/><rect x="150" width="25" height="25"/><rect x="125" y="175" width="25" height="25"/><rect x="125" y="150" width="25" height="25"/><rect class="cls-2" x="125" y="125" width="25" height="25"/><rect x="125" y="100" width="25" height="25"/><rect x="125" y="75" width="25" height="25"/><rect class="cls-1" x="125" y="50" width="25" height="25"/><rect x="125" y="25" width="25" height="25"/><rect x="125" width="25" height="25"/><rect x="100" y="175" width="25" height="25"/><rect class="cls-2" x="100" y="150" width="25" height="25"/><rect x="100" y="125" width="25" height="25"/><rect x="100" y="100" width="25" height="25"/><rect x="100" y="75" width="25" height="25"/><rect x="100" y="50" width="25" height="25"/><rect x="100" y="25" width="25" height="25"/><rect x="100" width="25" height="25"/><rect x="75" y="175" width="25" height="25"/><rect class="cls-2" x="75" y="150" width="25" height="25"/><rect x="75" y="125" width="25" height="25"/><rect x="75" y="100" width="25" height="25"/><rect x="75" y="75" width="25" height="25"/><rect x="75" y="50" width="25" height="25"/><rect x="75" y="25" width="25" height="25"/><rect x="75" width="25" height="25"/><rect x="50" y="175" width="25" height="25"/><rect x="50" y="150" width="25" height="25"/><rect class="cls-2" x="50" y="125" width="25" height="25"/><rect x="50" y="100" width="25" height="25"/><rect x="50" y="75" width="25" height="25"/><rect class="cls-1" x="50" y="50" width="25" height="25"/><rect x="50" y="25" width="25" height="25"/><rect x="50" width="25" height="25"/><rect x="25" y="175" width="25" height="25"/><rect x="25" y="150" width="25" height="25"/><rect x="25" y="125" width="25" height="25"/><rect x="25" y="100" width="25" height="25"/><rect x="25" y="75" width="25" height="25"/><rect x="25" y="50" width="25" height="25"/><rect class="cls-1" x="25" y="25" width="25" height="25"/><rect x="25" width="25" height="25"/><rect y="175" width="25" height="25"/><rect y="150" width="25" height="25"/><rect y="125" width="25" height="25"/><rect y="100" width="25" height="25"/><rect y="75" width="25" height="25"/><rect class="cls-1" y="50" width="25" height="25"/><rect y="25" width="25" height="25"/><rect width="25" height="25"/></g></g></svg>